<svg version="1.2" width="384" height="96" viewBox="0 0 10160 2540" preserveAspectRatio="xMidYMid" fill-rule="evenodd" stroke-width="28.222" stroke-linejoin="round" xmlns="http://www.w3.org/2000/svg" xml:space="preserve">
  <defs class="ClipPathGroup">
    <clipPath id="a" clipPathUnits="userSpaceOnUse">
      <path d="M0 0h10160v2540H0z"/>
    </clipPath>
  </defs>
  <g class="SlideGroup">
    <g class="Slide" clip-path="url(#a)">
      <g class="Page">
        <path class="BoundingBox" fill="none" d="M0-4h10160v2548H0z"/>
        <path d="M0 0h563v969l833-1V-1h563v2543h-563V1464l-833 1v1078H0V0Zm2510-1h563v2543h-563V-1Zm1679 494v1552h203l84-3 79-9 73-16 68-22 64-28 30-16 28-18 27-18 27-22 25-22 23-25 22-25 21-27 19-28 18-31 16-31 15-32 14-34 11-36 11-38 9-38 14-80 8-87 4-93-4-91-8-86-14-80-9-38-11-37-11-35-14-34-15-32-16-32-18-29-19-28-21-27-22-26-23-24-25-22-26-21-27-20-28-17-31-17-63-27-68-22-74-15-79-9-84-4h-203ZM3626-1l595-1 233 4 200 16 90 12 80 14 73 17 65 20 60 22 57 26 56 30 54 33 51 36 49 41 47 44 45 47 37 44 34 45 33 48 29 49 27 50 26 52 22 54 20 55 17 57 15 59 14 61 10 64 8 63 6 67 3 69 1 69-1 71-3 70-6 67-8 66-10 62-14 62-15 59-17 57-20 55-22 55-26 52-27 51-29 49-33 47-34 46-37 44-45 47-48 44-49 40-51 37-55 33-56 29-58 27-60 22-65 20-74 17-81 13-88 13-199 15-231 5-595 1V-1Zm3053 493v1552h203l84-3 79-9 73-16 68-22 64-28 30-16 28-18 27-18 27-22 25-22 23-25 22-25 21-27 19-28 18-31 17-31 14-32 14-34 12-36 10-38 9-38 14-80 8-87 4-93-4-91-8-86-14-80-9-38-10-37-12-35-14-34-14-32-17-32-18-29-19-28-21-27-22-26-23-24-25-22-25-21-28-20-28-17-31-17-63-27-68-22-74-15-79-9-84-4h-203ZM6116-2l595-1 233 4 200 16 90 12 80 14 73 17 65 20 60 22 58 26 55 30 54 33 51 36 50 41 46 44 45 47 37 44 34 45 33 48 29 49 28 50 25 52 22 54 20 55 18 57 14 59 14 61 10 64 8 63 6 67 3 69 1 69-1 71-3 70-6 67-8 66-10 62-14 62-14 59-18 57-20 55-22 55-25 52-28 51-29 49-33 47-34 46-37 44-45 47-47 44-50 40-51 37-55 33-56 29-58 27-60 22-65 20-74 17-81 13-88 13-199 15-231 5-595 1V-2Zm2490-1 1522-1v495l-959 1v474l901-1v496l-901 1v582l990-1v496l-1553 1V-3Z"/>
      </g>
    </g>
  </g>
</svg>
